<?xml version="1.0" encoding="utf-8"?>
<!-- Generator: Adobe Illustrator 21.0.2, SVG Export Plug-In . SVG Version: 6.00 Build 0)  -->
<svg version="1.1" id="レイヤー_1" xmlns="http://www.w3.org/2000/svg" xmlns:xlink="http://www.w3.org/1999/xlink" x="0px"
	 y="0px" viewBox="0 0 1000 1000" style="enable-background:new 0 0 1000 1000;" xml:space="preserve">
<style type="text/css">
	.st0{fill:#CFDDE6;}
</style>
<g>
	<g>
		<path class="st0" d="M16.6,407.6c-0.3-0.9-0.6-1.8-0.8-2.6c-23.7-78.6-15-168.9,42.6-231.4c-4.6,11.3-8.3,23-11,34.9
			c-7.8,33.4-14.1,68.2-9.5,102.6C43,349.3,51,392.6,79.7,421.5c11.6,11.7,25.9,25,41.7,30.2c11.4,3.8,24.3,2.7,36.1,1.6
			c11.8-1.2,23.5-4.7,34.8-8.3c11.7-3.7,34.7-11.1,44.5-0.1c1.7,1.9,2.8,4.3,3.5,6.7c2.5,8.7-0.3,18.3-5.3,25.8
			c-6.4,9.6-16.6,17.2-25.9,23.8c3.8-0.3,15.7-2.9,17.5-6.9c-3.7,8.1-8.9,15.5-12.9,23.4c-3.8,7.4-6.2,15.1-9.9,22.6
			c-29.4,60.1-26.5,127.4,12.1,183c10.6,15.2,21.3,30.9,35.2,43.4c5.2,4.6,14.6,13.7,22,14c7.6,0.3,11.5-6.7,17.3-10.4
			c1.1-0.7,2.3-1.4,3.7-1.5c3.5-0.1,5.6,4.2,5.3,7.8c-0.3,3.5-2,6.9-1.7,10.5c0.9,11.5,14.5,11.1,22.7,7.8c2-0.8,4.1-1.9,6.3-1.7
			c3.2,0.2,5.7,3.2,6.4,6.4c5.3,23.7-32.5,28.9-48.3,29.8c-27.2,1.6-55.5-9.8-75.2-28.3c-13.3-12.6-27-27.2-36.5-42.9
			c3.7,1.8,11.5-0.8,15.2-2.1s7.2-3.7,9.1-7.2c-4.2,1.2-8.5,2.5-13,2.7c-5.4,0.3-15.9-1.9-20.2-5.4c-6.5-5.4-7.7-15-12.5-21.6
			c2,2.7,12.8,1.8,15.8,1.1c6.2-1.4,12.3-6.3,14-12.6c-9.4,1.6-14.8,6.5-25,3.4c-19.1-5.7-24.5-27-29.4-44.5c-0.3-1,9.6,2,10.6,2.3
			c4.8,1.5,9.1,2.8,14.2,3.1c4.4,0.3,10-0.4,11.1-4.7c-11-3.1-21.7-7.7-31.6-13.5c-3.7-2.2-7.3-4.6-9.9-7.9
			c-2.8-3.6-4.3-8.1-5.6-12.5c-4.2-13.9-6.3-25.9-6.4-40.4c0-0.7,0.1-1.6,0.6-2c0.9-0.7,2.1,0.3,2.9,1.2
			c9.7,11.1,26.9,18.5,41.3,11.5c-5.5-1.3-10.5-4.3-15.4-7.2c-9.5-5.7-19.3-8.4-25.7-18.2c-7-10.3-8.7-23.5-6.7-35.7
			c1.6-9.5,4.5-3.7,10.7-0.3c8.5,4.7,20,5.9,29.5,4.6c2-0.3,7.4-3.1,9-2.7c-13-3.3-24.5-8.8-37.1-13.8c-13.6-5.4-14.5-16-12.4-29.9
			c0.1-0.7,0.3-1.5,0.8-1.9s1.2-0.3,1.8-0.3c4.9,0.4,9.5,2.8,13.6,2.8c7.3,1.3,14.5,2.3,21.8,3.9c2.7,0.6,5.4,0.9,8.2,1.2
			c6.1,0.5,11.9,0.3,17.9-0.6c2.8-0.4,5.6-0.8,8.4-1.5c2-0.5,6.3-3.1,8.1-2.9c-5.3-0.7-9.6-1.7-13.9-1.6
			c-35,0.7-73.5-4.5-102.7-26.3C46,460.6,26,436.3,16.6,407.6z"/>
	</g>
	<g>
		<path class="st0" d="M11,415.9c1,3.8,1.7,7.6,2.9,11.4c7.3,22.6,25.3,46.3,45.2,59.4c3.9,2.6,8.2,4.5,12.2,6.9
			c12.4,7.4,35.3,27.3,24.6,43.9c-2.4,3.6-8.2,7.3-12.4,7.1c-33.2-1.7-55.9-36-68.8-63.2c-6.1-12.9-5.8-24.8-7.1-38.5
			c-1.7-16.7-2.3-33.6-2.1-50.4c-0.1,6.5,2,12.9,4.1,18.9C10.2,412.9,10.6,414.4,11,415.9z"/>
	</g>
	<g>
		<path class="st0" d="M56.5,339.3c-0.4,3-0.7,6-0.9,9c-5.2-19.3-11.4-39-9.8-59.2c1.4-16.7,6.3-33.3,18.1-45.7
			c22.2-23.3,49.1-43.7,82.8-42.4c-8.3-0.3-18.5,10.9-24.6,15.7c-14.3,11.6-27.8,24.7-37.6,40.4c-7.8,12.5-13.5,26.2-17.2,40.4
			C63.8,311.8,58.6,325.1,56.5,339.3z"/>
	</g>
	<g>
		<path class="st0" d="M418.1,486c-11.3,4.5-24.4,4.1-35.3,9.6c-9,4.5-16.9,12.3-21.8,21.1c-5.2,9.5-4.4,18.4-1,28.5
			c0.9,2.7,1.9,5.6,1,8.4c-2,0.3-4-0.6-5.5-2c-3.3-3.1-3.6-7.1-3.5-11.4c0-1.1,0.1-2.3-0.6-3.1c-1.5-1.6-4,0.2-5.3,2
			c-1.7,2.3-22.4,42.2-16.1,43c3.5,0.4,5.5-4,8.9-5.1c-2.2,5.1-7.1,13.4-6.3,19.1c0.8,5.4,7,1.9,10.4,0.2
			c10.7-5.4,21.2-10.4,31.6-16.4c1.2-0.7,2.2-1.5,3.1-2.3c16.1,15.7,47.8-23.7,53.6-35.7c2.8-5.8,4.9-11.9,6.9-18
			c1.5-4.5,15.1-51.9,17-52.1C441.4,473.4,430.6,481,418.1,486z"/>
	</g>
	<g>
		<path class="st0" d="M970.3,352.2c0.5-0.1,1.1-0.1,1.6-0.1c3.7,0.4,5.6,3.4,8.4,5.5l9.6,7.3c-2.3-1.7-3.8-11.5-4.8-14.4
			c-6.1-16.7-12.1-33.4-19.6-49.5c-7.5-16.2-18.5-30-26.6-45.6c-0.8-1.5-2.6-4.4-1.8-6c1-2,3.8-2.8,5.6-1.4c2.3,1.9,4.7,3.8,7.2,5.5
			l8.2,5.7c1.4,1,2.7,1.9,4.1,2.9c1.1,0.8,3.4,1.8,4.1,2.9c-6.6-10.5-12.5-21.4-17.7-32.6c-4.8-10.4-12.1-19.1-18.4-28.6
			c-13.7-20.4-26.5-41.5-42.6-60.2c-15.9-18.5-32.6-36.6-50.1-53.7c-18.5-18.1-35-36.6-59.2-47.1c-25.8-11.3-53.5-16.6-80.9-22.2
			c-68.8-14.1-137-15.7-206.3-4.4c-43,7-85.5,17.7-126.4,32.8c-25.8,9.6-54.1,17-75.6,33c-52.9,39.5-97.8,87.4-123.1,150.1
			c-12.7,31.5-24.3,63.4-35.2,95.5c-2.9,8.6-4.7,18.5,0,26.9c7.9,14,25.6,18.3,40.6,18.4c9.6,0,17.9-6.6,27.3-7.7
			c2.9-7.3,0.9-16.6,1.7-24.3c0.9-9.2,4.2-18.1,4.6-27.4c-0.7,14.6-6.3,47.5,14.4,49.2c-11.5-1-14.2,28.1-16.1,36.6
			c1.2-6.8,1.1-19-6.6-21.5c-6.3-2.1-13.8,2.7-20,3.4c-9.7,1.1-19.7,0.4-28.5-4.3c-2.4-1.3-25.6-17.8-24.2-18.5
			c-3.1,1.6-4.1,5.2-4.9,8.3c-1.2,4.7-2.4,9.4-3.6,14.1c-2.1,8.4-5.7,17.8,0.5,24.7c6.3,7.1,15.3,7.6,23.8,10
			c10.7,3,22.4,0.2,33.3,0.3c-2.6,0-9.1,5.7-12.1,6.8c-4.5,1.6-9.3,2.5-14.1,2.7c-11.4,0.6-36.4-0.8-36.5-16.4
			c-3.2,7.2-4.9,17.6-0.5,24.7c3.9,6.3,12,10.9,19,12.7c30.9,8,60.1-7,86.6-20.8c11.5-6,20.2-16.1,31.2-22.5c3.5-2,7.1-4.1,10-6.9
			c-0.9,0.9-1.7,4-2.6,5.3c-1.3,2-3,3.9-4.4,5.9c-3.5,4.9-7.1,9.8-11.3,14.2c-0.9,0.9-8.5,9-9.6,8.6c8.5,2.7,17.9,0.3,23.1,9.6
			c6.1,10.9,0.1,23-3,33.7c0.1-0.7,16.5-4.3,18-4.7c9.3-2.8,19.1-6,26.7-12.2c8.1-6.6,18.1-16.2,22.8-25.5
			c8.6-17.2,18.9-35.9,35.3-46.6c3.6-2.4,8.5-4.4,12-1.8c2.4,1.8,3,5,2.8,8c-0.7,8.2-7.1,14.3-14.3,17.4c-4.5,1.9-9.1,4-13,6.9
			c-16.6,12.5-34.7,48-24.2,68c1.8,3.5,6.3,6,9.8,4.3c3.1-1.5,4.2-5.3,5.3-8.7c7.8-25.9,30.4-44.5,57.1-48.3
			c10.4-1.5,20.7-6.5,30.2-11.4c10-5.2,18.7-12.6,28.5-18.2c4.6-2.6,10.5-3.2,16.4-4.9c1.4,23.4,8,43,5.8,66.7
			c-3.6,39.6-18.2,69.1-38.4,102.2c-11.9,19.5-33.7,29.7-52.3,42.3c-9.6,6.5-17.4,13.6-27.5,19.3c-4.3,2.4-8.7,4.9-11.9,8.8
			c-3.5,4.3-6.5,13.2-3.4,18.4c1.5,2.6,5.3,4.7,7.3,7c2.3,2.7,4.3,5.8,5.5,9.1c0.9,2.5,1.4,5.2,1.8,7.8c1,5.9,0.3,9.7-4,13.8
			c-0.7,0.6-6.3,3.5-6.3,3.6c0.7-3.6,3.1-6.6,3.8-10.1c0.6-2.6,0.2-5.3-0.3-7.9c-0.7-3.2-1.7-6.4-2.9-9.4c-0.9-2.2-2.3-4.6-4.6-4.9
			c-2.4-0.3-4.4,1.8-5.8,3.8c-8.7,12.4-15.9,33-15.6,48.4c0,1.7,0.5,3.8,2.2,4.2c1,0.2,2.1-0.3,3-0.9c3.5-2.1,6.9-4.3,10.4-6.4
			c-0.1,0-3.1,16.4,0.5,17.1c1,0.2,2-0.2,2.9-0.6l0,0c10.6-4.6,21.4-6.7,28.1-11.3c9.2,6.2,22.7,0.5,36.7,0.4
			c12.4-0.1,27.2-0.6,39.3,1.9c15.3,3.2,31.2,13.4,45.9,1.1c4.7-3.9,7.3-9.7,9.7-15.2c17.5-40.3,33.1-78.9,76.4-96.7
			c29.9-12.3,100.6-25.4,101.6-67.3c1.1-45.7,1.7-87.8,28.7-127.3c-4.4,33.6-11.4,69.1-11.1,102.9c0.1,14.7,1.4,31.2,12.5,40.9
			c0.8,0.7,1.7,1.5,1.6,2.5c-0.1,1.4-1.8,2.1-3.1,2.4c-19.9,5-35.2,18.7-53.4,27c-15.8,7.3-29.1,12.8-45.4,18.4
			c-18.2,6.3-36.3,14.7-50.4,28.1c-20.9,19.9-29.8,51.9-37.6,79c2.7-4,9.7-10.6,14.4-5.4c4,4.4-2.1,18.8-3.2,24.2
			c0.9-4.4,8.6-11.2,11.4-14.8c22.9-29.4,40.5-60.8,82.6-62.3c-37.7,20.3-60.6,62-86.7,94.2c-14.1,17.3-36.5,11.7-54.3,3.5
			c-16.6-7.7-34.1-15.4-52.3-19.7c-9.5-2.2-19.2-3.5-28.9-3.6c-8.6-0.1-19.5-2.8-27.1,2.3c-0.4,0.3-0.8,0.6-1,1.1s-0.1,1.1,0.1,1.6
			c1.6,6.2,4.7,12,8.9,16.8c2.2,2.4,4.8,4.7,7.9,5.6c2.5,0.7,5.2,0.6,7.8,0.6c7,0.1,22.5,2.8,25,10c-1.7-5-20-5.6-24.5-5.4
			c-5.1,0.2-15.4,1.8-15.7,8.5c-0.1,1.1,0.4,2.2,0.9,3.2c4.3,9.7,8.8,19.4,13.3,29c0.9,1.8,1.9,3.8,3.8,4.4c3.1,1,6.5-2.1,9.3,0
			c-10.4,7.5-19.8,19.2-20.3,32.6c-0.5,11.2,3.8,22.6,6.5,33.4c6.1,24.1,14.2,50.1,38.3,61.8c12.1,5.9,24.2,14.4,39.8,9.8
			c12.6-3.8,25.7-5.8,38.6-8.7c15.3-3.4,29.8-3.8,43.9,5.4c7,4.6,15.7,6.8,23.7,9.9c14.1,5.4,28.9,10.1,44,11.4
			c6.6,0.6,13.3-0.5,19.7-2.2c5.4-1.4,11.7-2,16-5.8c-2.4-5.4-6.6-9.4-10.1-14c-1.6-2.2-4-6.2-6.9-6.9c-7.4-1.8-14.8,3.7-22,4
			c-8.7,0.3-21.3-3.4-29.5-6.1c-8.3-2.8-15.9-7.4-24-10.7c-20.1-8.2-52.2-9.5-71.5,1.3c23.2-13,56.9-20.2,82.9-14.4
			c10.5,2.3,16.6,5.9,28.3,4.1c2.9-0.4,19.8-7.4,21.7-5c-6.3-7.8-10.6-17-16.7-24.8c-4.8-6.1-10.9-9.6-14.2-17.3
			c-7.2-17.1-6.8-31.7-22.4-44.2c-6.6-5.3-13.6-12.7-20.6-17c-4.1-2.5-9-4.2-12.2-7.8c-2.5-2.9-3.6-6.4-2.8-10
			c8.7-2.7,46.6-5.4,51.8,2.5c-3.8-5.9,3.3-10.1,8.7-11.3c4.6-1,9.4-0.6,14.1-0.1c7.5,0.8,17.3,6,25.2,8.1c10,2.6,19,6.6,25.5,14.9
			c9.6,12.2,13.8,32.7,16.8,47.6c8.6,42.6,57.7,66,97.9,57c9.1-2,17.9-7,24.6-13.4c4.9-4.6,10.3-11,12.2-17.6c0.5-1.8,0.5-4.3-1.3-5
			c-0.8-0.3-1.7-0.2-2.5,0c-3.8,0.9-5.8,3.3-9.2,4.8c-4.9,2.2-11.7,3.5-16.1,6.2c25.2-15.1,42.1-37.5,63.8-56.3
			c16.5-14.3,27.7-39,33.4-59.7c-1.2,4.3-1.2,15.3,3.9,17.7c2.3,1.1,5.1,0.4,7-1.3c7.3-6.7,8.3-25.4,8.2-34.6
			c-0.2-14.7,3.7-30,2.3-44.8c2.1,22.3,5,44.2,7.7,66.3c2.6,20.4-20.4,51.2-30.6,68.1c-14.3,23.6-30.7,45.9-49.1,66.5
			c-23.4,26.2-53.3,50.9-90.4,36.4c-7.1-2.8-13.8-6.6-19.8-11.4c-2.6-2.1-5.1-4.3-7.5-6.5c-7.9-7.1-16.8-13.5-24.3-20.8
			c-16.3-15.8-22.2-35.9-23.8-57.9c-2.2-31.4-27.1-51.1-56.7-45.8c4.4-0.8,8.9,12,5.4,14.8c-3.6,2.9-18.1-5.1-21.9-6.6
			c-10.5-4.1-19.1-5.8-30.7-4c23.7,8.7,29.4,21.3,35.6,45.4c3.9,15,11.7,32,26.9,34.8c3.4,0.6,7,0.4,10.4,1.2
			c9.9,2.3,16,11.9,21,20.7c14.1,24.6,32.7,49.9,55.7,67.1c24,17.7,54.6,35.5,84.5,21.5c24.3-11.3,41.5-34.4,55.9-56.1
			c7.4-11.2,14.3-22.9,21.3-34.4c3-4.9,6.6-9.3,10.2-13.7c1.6-1.9,7.6-11.5,9.9-5.4c0.6,1.7,0.2,4.9-0.3,6.6
			c5.6-5.1,9.9-12.3,13.3-19.1c4-7.9,8.3-15.6,12.4-23.3c8.3-15.6,16.2-31.5,20.8-48.5c9.1-33.7-5.3-65.1-11.3-97.8
			c-6.4-34.9-1.9-71.1,7.8-105c3.4-11.9,8.6-22.7,12.7-34.3c13.7-38.5,27.5-74.7,32.9-115.4c2.8-21.3,0.1-42.7-4.9-63.5
			c-1.3-5.4-2.8-10.8-4.3-16.2c-1-3.4-4.1-9.6-1-12.8C968.5,352.7,969.3,352.3,970.3,352.2z M259.3,343.7c-4,2.1-8.6,2.7-13.1,3.1
			c-1.8,0.2-5.9,3.5-7.5,2.3l0,0c-0.9-0.7,0.4-4,0.6-5c0.5-4.6-0.7-9.2-0.5-13.7c0.2-5.2,2.1-9,6.7-11.4c5.2-2.7,11.5-2.5,16.4-5.6
			c0.7-0.4,1.7-0.9,2.2-0.3c0.2,0.2,0.2,0.4,0.3,0.6c0.5,1.9-0.1,3.8,0.1,5.7c0.2,1.6,1,3.1,1.5,4.7
			C268.2,330.9,266,340.2,259.3,343.7z M473.5,247.2c-2,7.4-5.8,16.4-13,19.6c-8.8,4-20.1,5.6-29.7,6.3c-9.2,0.7-20-1.2-28.7-4.1
			c-4-1.4-8.7-3.1-10.4-7.3c-4-9.6,8.1-9.7,14.3-7.7c-1.9-3.3-5.6-5.1-7.8-8.2c-2.4-3.5-2.4-8.3-1.1-12.3
			c3.1-9.3,10.5-16.3,16.2-24.1c6.3-8.7,9.3-19.8,8.2-30.5c0.2,2,11.4,10.5,13.2,13.2c3.9,5.7,6.7,12.2,8.3,18.9
			c3.6,15.9-2,25.9-7.4,40.2c-1.1,2.9-2.2,6.1-1,9c4.9,1.5,10.4,0.4,14.8-2.2s7.8-6.7,10.3-11.2c12.3-22.2-0.8-40.1-12.4-58.7
			c-7.3-11.7-16.5-24-28.2-31.7c-7.7-5.1-23.5-0.7-30,5.5c-10.4,9.8-15.6,32.9-14.6,46.6c0.3,3.3,1,6.6,0.8,10s-1.4,6.8-4.2,8.7
			c-1.8,1.2-4,1.5-6.1,1.5c-5-0.1-9.6,1.2-14.6,1.2c-20.6-0.1-42,0.6-54.6,19.8c-2.3,3.5-3.2,9-4.5,13c-0.3,1-0.7,2.1-1,3.2
			c-1.4,4.4-3,8.6-4.5,13c-0.9,2.8-5.9,11.5-5.2,14c-2.6-10.2,4.7-20.5,3.7-30.9c-0.5-5.3-8.9-4.9-12.5-4.3c-8,1.5-14,7.7-21.2,9.4
			c4.8-5.4,12.1-9.8,18.7-12.9c9.7-4.6,18.7-8.1,27.1-14.9c6.5-5.2,13.9-9.1,21.6-12.3c6.6-2.7,11.4-2,18.1-3.4l12.8-2.8
			c2.7-0.6,7-0.2,8.9-2.6c3.8-4.8,3.4-11.9,4.6-17.6c1.6-7.7,4.2-15.3,6.5-22.8c3.1-10,3.9-19,12.1-26.3c-6.6-0.7-13.4-1.3-19.9,0.2
			c-12.4,2.9-18,16.1-25.1,25.6c-8.3,11.2-17.4,17.7-30.7,22c11.5-10.9,20.8-24,32-35.2c8.1-8.2,11.6-12.5,23.7-15
			c3.8-0.8,7.6-1.5,11.4-2.3c12.9-2.6,28.3-3,41.3-0.4c14.7,3,27.3,11.5,36.6,23.2c1.8,2.2,3.5,4.6,5,7
			c6.9,10.7,13.8,22.2,18.2,34.2c2.1,5.7,2.9,11.6,2.8,17.7C476.3,234.6,475.1,241,473.5,247.2z M929.9,526.6
			c-11,27.1-25.3,53.7-27.9,83.4c-1.3,15-4.1,29.4-5.7,44.4c-1.4-5.1-2.7-10.3-4.1-15.4c-0.3-1.3-0.7-2.6-1.6-3.6
			c-5.1-5.6-37.8,24.8-55.5,39.4c8.8-8.5,17.5-21.5,23.1-28.5c9.4-11.5,15.3-25,21.7-38.5c23.1-48.6,41.3-108.1,41.4-162.2
			c0-9.1-1-19.4-8.1-25.2c-2.6-2.1-6.2-3.4-9.4-2.4c-3.9,1.3-6,5.3-7.6,9.1c-6,13.7-9.1,29.5-15.7,42.8c-4.7,9.5-12,16.2-14.4,27.3
			c7.3-33.7,15-75,9.1-109.5c-1.1-6.2-3.9-32-11-31.1c-6.4,0.8-6.8,15.1-8,19.7c-3.4,12.8-10.7,25.8-16.1,37.9
			c7.6-37.4,10.3-75.8,8-113.9c-0.8-13.3-5.9-24.1-9.2-36.5c-4-14.8-7.2-29.6-12.6-44.1c-18.5-49.1-52.9-83.6-107.3-93.1
			c-18.6-3.2-37.2-7.4-56.1-9.1c-13.2-1.2-26-0.1-39.1-1c-5.8-0.4-11.6-0.7-17.5-0.9c-3.2-0.1-12.2-1.9-14.8-0.3
			c11.5-7.1,42.3-19.1,20.9-33.4c-2.8-1.9-5.6-3.7-8.5-5.3c-4.1-2.2-8.4-3.8-12.7-5.3C564,62,535.5,58.7,506.8,61
			c-16.9,1.4-33.7,6-49.9,11c0.8-0.2,19.2-10.5,14.6-13c-5.7-3.1-12.6-2.9-19-2.3c-8.5,0.9-16.9,2.4-25.1,2.8
			c-8.1,0.4-16.2,2.3-23.7,5.4c12.2-5.1,23.9-13.2,36.7-16.1c30.3-6.7,61-12.6,91.9-15.9c22.7-2.4,45.5-3.7,68.4-4
			c24.9-0.3,51.3-0.3,74.7,9.7c-7.4,0-17-2.8-23.9-2.1c-4.3,0.4-10.5,3.9-10.7,8.7c5,4.6,12.3,5.4,19,6.4
			c16.3,2.5,32.6,6.2,48.8,9.3c17.7,3.4,35.1,8.7,51.7,15.6c4.9,2,13.1,10.8,17.1,11.5c-27.9-4.9-56.1-7.3-84.4-7.3
			c-7.9,0-16.7,0.6-22.2,6.2c-1.1,1.1-2,2.7-1.5,4.1c0.4,1.2,1.7,1.8,2.8,2.2c50.1,21.5,108.2,19.8,147.5,62.7
			c28.3,30.9,31,80.1,55,114.9c1.9,2.8,4.7,5.8,8,4.9c0.2-15.6-1-31.2-3.5-46.6c4.5,27.4,24,56.9,32.5,83.7
			c12.4,39.1,30.6,78,35.7,118.9C951.2,465.4,942.2,496.2,929.9,526.6z"/>
	</g>
</g>
</svg>
